<svg xmlns="http://www.w3.org/2000/svg" viewBox="0 0 841.57 1138.99"><defs><style>.cls-1{fill:#830cf2;}</style></defs><title>mw-purple</title><g id="Layer_2" data-name="Layer 2"><g id="Layer_7" data-name="Layer 7"><g id="ARC"><path class="cls-1" d="M841.57,6.73V721L684,878.53c-5.25,3.05-10.63-.66-10.63-5.63V158.65L830.94,1.11C836.19-1.95,841.57,1.77,841.57,6.73Z"/></g><g id="ARC-2" data-name="ARC"><path class="cls-1" d="M168.17,167V872.91a6.73,6.73,0,0,1-11.5,4.76L5.92,726.91A20.2,20.2,0,0,1,0,712.62V6.73A6.73,6.73,0,0,1,11.5,2L162.25,152.73A20.2,20.2,0,0,1,168.17,167Z"/></g><g id="ARC-3" data-name="ARC"><path class="cls-1" d="M336.58,343.32v705.89a20.2,20.2,0,0,0,5.92,14.29L416,1137a6.73,6.73,0,0,0,9.52,0l73.52-73.52a20.2,20.2,0,0,0,5.92-14.29V343.32a6.73,6.73,0,0,0-11.5-4.76L425.55,406.5a6.73,6.73,0,0,1-9.52,0l-67.94-67.94a6.73,6.73,0,0,0-11.5,4.76Z"/></g></g></g></svg>