<svg xmlns="http://www.w3.org/2000/svg" viewBox="0 0 114.01 23.23"><defs><style>.cls-1{fill:#fff;}</style></defs><title>oceana-logo_white</title><g id="Layer_2" data-name="Layer 2"><g id="Layer_1-2" data-name="Layer 1"><path class="cls-1" d="M11.8,0A11.6,11.6,0,0,0,3.4,3.32,11.15,11.15,0,0,0,0,11.6a11.15,11.15,0,0,0,3.4,8.28,11.6,11.6,0,0,0,8.4,3.32,11.61,11.61,0,0,0,8.4-3.32,11.15,11.15,0,0,0,3.4-8.28,11.15,11.15,0,0,0-3.4-8.28A11.61,11.61,0,0,0,11.8,0Zm5.33,17.06a7.15,7.15,0,0,1-5.33,2.25,7.15,7.15,0,0,1-5.33-2.25A7.6,7.6,0,0,1,4.3,11.6,7.6,7.6,0,0,1,6.47,6.14,7.15,7.15,0,0,1,11.8,3.89a7.15,7.15,0,0,1,5.33,2.25,7.61,7.61,0,0,1,2.17,5.46A7.6,7.6,0,0,1,17.13,17.06Z"/><path class="cls-1" d="M39.95,18a.69.69,0,0,0-1,0,5.59,5.59,0,0,1-3.73,1.58A5.22,5.22,0,0,1,30,14.27a4.56,4.56,0,0,1,1.53-3.58,5.29,5.29,0,0,1,3.65-1.4,6.09,6.09,0,0,1,3.67,1.39.69.69,0,0,0,1-.09l1.42-1.71c.38-.46.36-.89.09-1.13a8.94,8.94,0,0,0-6.07-2.23A9.4,9.4,0,0,0,28.64,8a8.34,8.34,0,0,0-2.7,6.42,8.41,8.41,0,0,0,2.59,6.38,8.71,8.71,0,0,0,6.17,2.44,9.75,9.75,0,0,0,6.72-2.68.69.69,0,0,0,0-1Z"/><path class="cls-1" d="M56.82,18.36a.67.67,0,0,0-.94-.05,5.86,5.86,0,0,1-4.13,1.42,5.62,5.62,0,0,1-3.37-1.07,3.53,3.53,0,0,1-1.53-2.48H59.22a.69.69,0,0,0,.69-.69v-2a7.36,7.36,0,0,0-2.47-5.86,8.85,8.85,0,0,0-6-2.12,8.71,8.71,0,0,0-6.09,2.39,8.39,8.39,0,0,0-2.59,6.45,8.52,8.52,0,0,0,2.54,6.46,8.65,8.65,0,0,0,6.15,2.41,9.72,9.72,0,0,0,6.72-2.4.68.68,0,0,0,0-1Zm-10-5.45a3.49,3.49,0,0,1,1.43-2.74A5.34,5.34,0,0,1,51.57,9a4.6,4.6,0,0,1,3.09,1.07,3.65,3.65,0,0,1,1.23,2.79Z"/><path class="cls-1" d="M64.68,9.92c.33.45.73.52,1,.33a8.07,8.07,0,0,1,4.15-1.3c2.33,0,3.46,1,3.46,3.08v.38H69a9,9,0,0,0-5.07,1.27A4.4,4.4,0,0,0,62,17.56a5.2,5.2,0,0,0,1.8,4.13,6.64,6.64,0,0,0,4.48,1.54,7.19,7.19,0,0,0,5.31-2.08v1.14a.69.69,0,0,0,.69.69h2.32a.69.69,0,0,0,.69-.69V12a5.91,5.91,0,0,0-2-4.89,7.77,7.77,0,0,0-5-1.55,11.06,11.06,0,0,0-6.52,2.06.69.69,0,0,0-.15,1Zm7.45,8.94a4.53,4.53,0,0,1-2.79.89,4.38,4.38,0,0,1-2.48-.6A1.87,1.87,0,0,1,66,17.49c0-1.44,1.16-2.14,3.55-2.14h3.71v1.16A2.75,2.75,0,0,1,72.13,18.86Z"/><path class="cls-1" d="M89.76,5.53a6.65,6.65,0,0,0-2.87.54,6.57,6.57,0,0,0-2.68,2.14V6.46a.69.69,0,0,0-.69-.69H80.89a.69.69,0,0,0-.69.69V22.29a.69.69,0,0,0,.69.69h2.64a.69.69,0,0,0,.69-.69v-8.6a4.28,4.28,0,0,1,1.27-3.35,4.38,4.38,0,0,1,3-1.14c2.41,0,3.58,1.43,3.58,4.37v8.73a.69.69,0,0,0,.69.69h2.64a.69.69,0,0,0,.69-.69v-9.8a7,7,0,0,0-1.82-5.17A6.4,6.4,0,0,0,89.76,5.53Z"/><path class="cls-1" d="M101.39,9.92c.33.45.73.52,1,.33a8.07,8.07,0,0,1,4.15-1.3c2.33,0,3.46,1,3.46,3.08v.38h-4.3a9,9,0,0,0-5.07,1.27,4.4,4.4,0,0,0-1.93,3.9,5.2,5.2,0,0,0,1.8,4.13A6.64,6.64,0,0,0,105,23.23a7.19,7.19,0,0,0,5.31-2.08v1.14A.69.69,0,0,0,111,23h2.32a.69.69,0,0,0,.69-.69V12a5.91,5.91,0,0,0-2-4.89,7.77,7.77,0,0,0-5-1.55,11.06,11.06,0,0,0-6.52,2.06.69.69,0,0,0-.15,1Zm7.45,8.94a4.53,4.53,0,0,1-2.79.89,4.38,4.38,0,0,1-2.48-.6,1.87,1.87,0,0,1-.83-1.66c0-1.44,1.16-2.14,3.55-2.14H110v1.16A2.75,2.75,0,0,1,108.84,18.86Z"/></g></g></svg>